HIERARCHY
ROOT mixamorig:Hips
{
	OFFSET 0.000000 95.415794 0.000000
	CHANNELS 6 Xposition Yposition Zposition Xrotation Yrotation Zrotation
	JOINT mixamorig:Spine
	{
		OFFSET 0.000000 10.058800 -0.358200
		CHANNELS 3 Xrotation Yrotation Zrotation
		JOINT mixamorig:Spine1
		{
			OFFSET 0.000000 11.735359 -0.417847
			CHANNELS 3 Xrotation Yrotation Zrotation
			JOINT mixamorig:Spine2
			{
				OFFSET 0.000000 13.411812 -0.477538
				CHANNELS 3 Xrotation Yrotation Zrotation
				JOINT mixamorig:Neck
				{
					OFFSET 0.000000 15.088242 -0.537228
					CHANNELS 3 Xrotation Yrotation Zrotation
					JOINT mixamorig:Head
					{
						OFFSET 0.000000 8.085602 2.687800
						CHANNELS 3 Xrotation Yrotation Zrotation
						JOINT mixamorig:HeadTop_End
						{
							OFFSET 0.000000 21.499207 7.146700
							CHANNELS 3 Xrotation Yrotation Zrotation
							End Site
							{
								OFFSET 0.000000 22.655930 0.000000
							}
						}
					}
				}
				JOINT mixamorig:LeftShoulder
				{
					OFFSET 5.949100 13.237015 -0.535855
					CHANNELS 3 Xrotation Yrotation Zrotation
					JOINT mixamorig:LeftArm
					{
						OFFSET 11.918104 -3.676208 0.002851
						CHANNELS 3 Xrotation Yrotation Zrotation
						JOINT mixamorig:LeftForeArm
						{
							OFFSET 23.814898 0.000000 -0.000001
							CHANNELS 3 Xrotation Yrotation Zrotation
							JOINT mixamorig:LeftHand
							{
								OFFSET 24.556309 0.000000 -0.000001
								CHANNELS 3 Xrotation Yrotation Zrotation
								JOINT mixamorig:LeftHandThumb1
								{
									OFFSET 2.802582 -1.204224 2.556223
									CHANNELS 3 Xrotation Yrotation Zrotation
									JOINT mixamorig:LeftHandThumb2
									{
										OFFSET 2.466209 -1.423859 1.423865
										CHANNELS 3 Xrotation Yrotation Zrotation
										JOINT mixamorig:LeftHandThumb3
										{
											OFFSET 2.369835 -1.368225 1.368225
											CHANNELS 3 Xrotation Yrotation Zrotation
											JOINT mixamorig:LeftHandThumb4
											{
												OFFSET 1.846512 -1.066086 1.066086
												CHANNELS 3 Xrotation Yrotation Zrotation
												End Site
												{
													OFFSET 1.556206 -1.025696 1.486212
												}
											}
										}
									}
								}
								JOINT mixamorig:LeftHandIndex1
								{
									OFFSET 8.620476 -0.225967 2.435161
									CHANNELS 3 Xrotation Yrotation Zrotation
									JOINT mixamorig:LeftHandIndex2
									{
										OFFSET 3.045731 0.000000 -0.000000
										CHANNELS 3 Xrotation Yrotation Zrotation
										JOINT mixamorig:LeftHandIndex3
										{
											OFFSET 2.806702 0.000000 -0.000000
											CHANNELS 3 Xrotation Yrotation Zrotation
											JOINT mixamorig:LeftHandIndex4
											{
												OFFSET 2.440117 0.000000 -0.000000
												CHANNELS 3 Xrotation Yrotation Zrotation
												End Site
												{
													OFFSET 2.440094 -0.000061 -0.008200
												}
											}
										}
									}
								}
								JOINT mixamorig:LeftHandMiddle1
								{
									OFFSET 8.484863 0.000000 -0.000000
									CHANNELS 3 Xrotation Yrotation Zrotation
									JOINT mixamorig:LeftHandMiddle2
									{
										OFFSET 3.193611 0.000000 -0.000000
										CHANNELS 3 Xrotation Yrotation Zrotation
										JOINT mixamorig:LeftHandMiddle3
										{
											OFFSET 3.085205 0.000000 -0.000000
											CHANNELS 3 Xrotation Yrotation Zrotation
											JOINT mixamorig:LeftHandMiddle4
											{
												OFFSET 2.692902 0.000000 -0.000000
												CHANNELS 3 Xrotation Yrotation Zrotation
												End Site
												{
													OFFSET 2.692902 -0.000031 -0.003300
												}
											}
										}
									}
								}
								JOINT mixamorig:LeftHandRing1
								{
									OFFSET 8.270775 0.052689 -2.023483
									CHANNELS 3 Xrotation Yrotation Zrotation
									JOINT mixamorig:LeftHandRing2
									{
										OFFSET 2.740799 0.000000 -0.000000
										CHANNELS 3 Xrotation Yrotation Zrotation
										JOINT mixamorig:LeftHandRing3
										{
											OFFSET 2.757607 0.000000 -0.000000
											CHANNELS 3 Xrotation Yrotation Zrotation
											JOINT mixamorig:LeftHandRing4
											{
												OFFSET 2.285004 0.000000 -0.000000
												CHANNELS 3 Xrotation Yrotation Zrotation
												End Site
												{
													OFFSET 2.285004 0.000031 0.003000
												}
											}
										}
									}
								}
								JOINT mixamorig:LeftHandPinky1
								{
									OFFSET 7.700752 -0.253616 -3.945376
									CHANNELS 3 Xrotation Yrotation Zrotation
									JOINT mixamorig:LeftHandPinky2
									{
										OFFSET 2.527405 0.000000 0.000000
										CHANNELS 3 Xrotation Yrotation Zrotation
										JOINT mixamorig:LeftHandPinky3
										{
											OFFSET 2.003403 0.000000 0.000000
											CHANNELS 3 Xrotation Yrotation Zrotation
											JOINT mixamorig:LeftHandPinky4
											{
												OFFSET 1.854500 0.000000 0.000000
												CHANNELS 3 Xrotation Yrotation Zrotation
												End Site
												{
													OFFSET 1.854507 -0.000015 -0.001300
												}
											}
										}
									}
								}
							}
						}
					}
				}
				JOINT mixamorig:RightShoulder
				{
					OFFSET -5.949100 13.237015 -0.538657
					CHANNELS 3 Xrotation Yrotation Zrotation
					JOINT mixamorig:RightArm
					{
						OFFSET -11.918104 -3.676208 -0.002847
						CHANNELS 3 Xrotation Yrotation Zrotation
						JOINT mixamorig:RightForeArm
						{
							OFFSET -23.819902 0.000000 0.000001
							CHANNELS 3 Xrotation Yrotation Zrotation
							JOINT mixamorig:RightHand
							{
								OFFSET -24.559902 0.000000 0.000001
								CHANNELS 3 Xrotation Yrotation Zrotation
								JOINT mixamorig:RightHandThumb1
								{
									OFFSET -2.702209 -1.308395 2.527615
									CHANNELS 3 Xrotation Yrotation Zrotation
									JOINT mixamorig:RightHandThumb2
									{
										OFFSET -2.432022 -1.404129 1.404127
										CHANNELS 3 Xrotation Yrotation Zrotation
										JOINT mixamorig:RightHandThumb3
										{
											OFFSET -2.375206 -1.371323 1.371325
											CHANNELS 3 Xrotation Yrotation Zrotation
											JOINT mixamorig:RightHandThumb4
											{
												OFFSET -1.987808 -1.147659 1.147661
												CHANNELS 3 Xrotation Yrotation Zrotation
												End Site
												{
													OFFSET -1.835846 -1.144562 1.380323
												}
											}
										}
									}
								}
								JOINT mixamorig:RightHandIndex1
								{
									OFFSET -8.671478 -0.301926 2.442636
									CHANNELS 3 Xrotation Yrotation Zrotation
									JOINT mixamorig:RightHandIndex2
									{
										OFFSET -3.068298 0.000000 0.000000
										CHANNELS 3 Xrotation Yrotation Zrotation
										JOINT mixamorig:RightHandIndex3
										{
											OFFSET -2.779701 0.000000 0.000000
											CHANNELS 3 Xrotation Yrotation Zrotation
											JOINT mixamorig:RightHandIndex4
											{
												OFFSET -2.490097 0.000000 0.000000
												CHANNELS 3 Xrotation Yrotation Zrotation
												End Site
												{
													OFFSET -2.490097 0.000000 -0.000700
												}
											}
										}
									}
								}
								JOINT mixamorig:RightHandMiddle1
								{
									OFFSET -8.656311 0.000000 0.000000
									CHANNELS 3 Xrotation Yrotation Zrotation
									JOINT mixamorig:RightHandMiddle2
									{
										OFFSET -3.230400 0.000000 0.000000
										CHANNELS 3 Xrotation Yrotation Zrotation
										JOINT mixamorig:RightHandMiddle3
										{
											OFFSET -3.025497 0.000000 0.000000
											CHANNELS 3 Xrotation Yrotation Zrotation
											JOINT mixamorig:RightHandMiddle4
											{
												OFFSET -2.688805 0.000000 0.000000
												CHANNELS 3 Xrotation Yrotation Zrotation
												End Site
												{
													OFFSET -2.688797 0.000000 -0.000700
												}
											}
										}
									}
								}
								JOINT mixamorig:RightHandRing1
								{
									OFFSET -8.628174 0.073822 -2.089274
									CHANNELS 3 Xrotation Yrotation Zrotation
									JOINT mixamorig:RightHandRing2
									{
										OFFSET -2.674103 0.000000 0.000000
										CHANNELS 3 Xrotation Yrotation Zrotation
										JOINT mixamorig:RightHandRing3
										{
											OFFSET -2.630905 0.000000 0.000000
											CHANNELS 3 Xrotation Yrotation Zrotation
											JOINT mixamorig:RightHandRing4
											{
												OFFSET -2.160599 0.000000 0.000000
												CHANNELS 3 Xrotation Yrotation Zrotation
												End Site
												{
													OFFSET -2.160599 0.000000 -0.000900
												}
											}
										}
									}
								}
								JOINT mixamorig:RightHandPinky1
								{
									OFFSET -7.514580 -0.339432 -3.927982
									CHANNELS 3 Xrotation Yrotation Zrotation
									JOINT mixamorig:RightHandPinky2
									{
										OFFSET -2.510002 0.000000 0.000000
										CHANNELS 3 Xrotation Yrotation Zrotation
										JOINT mixamorig:RightHandPinky3
										{
											OFFSET -2.099197 0.000000 0.000000
											CHANNELS 3 Xrotation Yrotation Zrotation
											JOINT mixamorig:RightHandPinky4
											{
												OFFSET -1.845604 0.000000 0.000000
												CHANNELS 3 Xrotation Yrotation Zrotation
												End Site
												{
													OFFSET -1.845596 -0.000015 0.001600
												}
											}
										}
									}
								}
							}
						}
					}
				}
			}
		}
	}
	JOINT mixamorig:LeftUpLeg
	{
		OFFSET 9.392100 -5.572197 -0.093200
		CHANNELS 3 Xrotation Yrotation Zrotation
		JOINT mixamorig:LeftLeg
		{
			OFFSET 0.292645 -42.228855 -2.734330
			CHANNELS 3 Xrotation Yrotation Zrotation
			JOINT mixamorig:LeftFoot
			{
				OFFSET -0.292647 -39.069244 -1.515097
				CHANNELS 3 Xrotation Yrotation Zrotation
				JOINT mixamorig:LeftToeBase
				{
					OFFSET 1.771321 -7.534380 12.504712
					CHANNELS 3 Xrotation Yrotation Zrotation
					JOINT mixamorig:LeftToe_End
					{
						OFFSET 0.606595 0.250482 5.917521
						CHANNELS 3 Xrotation Yrotation Zrotation
						End Site
						{
							OFFSET 0.606595 0.250482 5.917521
						}
					}
				}
			}
		}
	}
	JOINT mixamorig:RightUpLeg
	{
		OFFSET -9.392100 -5.572197 -0.015200
		CHANNELS 3 Xrotation Yrotation Zrotation
		JOINT mixamorig:RightLeg
		{
			OFFSET -0.292665 -42.228924 -2.850109
			CHANNELS 3 Xrotation Yrotation Zrotation
			JOINT mixamorig:RightFoot
			{
				OFFSET 0.292671 -39.069195 -1.341140
				CHANNELS 3 Xrotation Yrotation Zrotation
				JOINT mixamorig:RightToeBase
				{
					OFFSET -1.771318 -7.534140 12.379671
					CHANNELS 3 Xrotation Yrotation Zrotation
					JOINT mixamorig:RightToe_End
					{
						OFFSET -0.606596 0.250612 6.000615
						CHANNELS 3 Xrotation Yrotation Zrotation
						End Site
						{
							OFFSET -0.606596 0.250612 6.000614
						}
					}
				}
			}
		}
	}
}
MOTION
Frames: 4
Frame Time: 0.033333
33.046112 43.313087 -25.863413 12.907337 12.911428 1.372341 36.815860 -0.333406 -7.768466 2.764392 0.353688 0.448386 2.758988 0.408169 0.429138 0.992319 0.478131 -1.661163 -19.201298 0.232002 1.437572 -0.000001 0.000000 -0.000001 2.449150 -28.180981 3.501428 -41.660520 -50.418868 -57.674206 -0.000012 -28.218867 -0.000019 67.755456 -8.351323 46.728128 -2.143080 -9.345331 24.898707 5.975209 12.647548 1.348324 -7.335827 -0.421710 13.147353 0.000000 0.000000 0.000002 0.428668 4.394499 -20.294538 0.195370 1.501806 -14.823291 0.292323 1.829206 -18.158471 0.000000 -0.000001 -0.000002 0.193641 3.586247 -12.058799 0.437062 2.222212 -22.250928 0.167730 1.393199 -13.728940 -0.000001 0.000002 0.000001 0.256861 3.851264 -14.721481 0.120037 1.181095 -11.606346 0.120051 1.181111 -11.606335 0.000001 -0.000002 -0.000001 2.182659 16.862506 -7.930267 0.114523 1.153921 -11.335520 0.099717 1.077423 -10.575093 0.000000 -0.000001 0.000000 4.603201 24.427722 13.010967 -31.413983 47.133011 41.548150 0.000028 25.336331 -0.000030 45.956897 -4.490281 -66.759970 1.907571 -4.780882 -20.489031 1.350994 -2.133789 0.517216 -5.504794 -5.510965 -14.718521 -0.000001 0.000001 -0.000001 0.080756 -2.833346 6.784758 0.087234 -0.898123 11.095190 0.032100 -0.546413 6.723238 0.000002 0.000001 0.000001 0.103243 -2.997216 8.816272 0.068485 -0.796590 9.827365 0.068489 -0.796589 9.827386 0.000001 0.000000 0.000001 0.094199 -2.936357 8.060680 0.022650 -0.459238 5.646627 0.022653 -0.459238 5.646643 -0.000000 0.000002 0.000002 0.064444 -2.672787 4.802734 0.004061 -0.194644 2.390037 0.004061 -0.194621 2.390026 -0.000000 0.000001 0.000000 -41.081699 5.567288 13.620588 136.869737 5.646638 0.027785 -11.842882 0.403974 -2.351360 -55.389453 10.739783 -29.617432 0.000001 0.000001 0.000000 -40.290757 -5.167366 -24.553434 140.010750 -3.286369 0.933605 -7.490540 -1.683851 14.332828 -46.736720 -4.142377 13.163608 -0.000003 0.000005 0.000000 
33.046074 43.313011 -25.863544 12.907335 12.911428 1.372341 36.815864 -0.333406 -7.768474 2.764391 0.353688 0.448388 2.758986 0.408171 0.429135 0.992335 0.478131 -1.661164 -19.201303 0.232000 1.437575 -0.000002 -0.000000 0.000001 2.449143 -28.180961 3.501410 -41.660500 -50.418865 -57.674192 0.000004 -28.218870 0.000000 67.755477 -8.351341 46.728145 -2.143077 -9.345330 24.898714 5.975212 12.647548 1.348299 -7.335826 -0.421720 13.147355 -0.000000 0.000000 -0.000003 0.428670 4.394491 -20.294544 0.195363 1.501804 -14.823298 0.292318 1.829225 -18.158452 0.000001 0.000000 -0.000002 0.193643 3.586251 -12.058801 0.437063 2.222208 -22.250929 0.167720 1.393213 -13.728941 -0.000002 0.000001 -0.000003 0.256864 3.851267 -14.721493 0.120036 1.181094 -11.606339 0.120044 1.181101 -11.606343 -0.000001 0.000000 -0.000004 2.182659 16.862514 -7.930285 0.114524 1.153913 -11.335501 0.099721 1.077428 -10.575084 0.000001 0.000001 0.000001 4.603188 24.427721 13.010993 -31.413993 47.133022 41.548153 0.000025 25.336348 -0.000019 45.956901 -4.490279 -66.759990 1.907573 -4.780877 -20.489041 1.350998 -2.133780 0.517238 -5.504791 -5.510956 -14.718521 0.000001 0.000000 -0.000001 0.080762 -2.833348 6.784758 0.087233 -0.898120 11.095193 0.032098 -0.546413 6.723234 0.000000 0.000001 0.000000 0.103244 -2.997204 8.816263 0.068485 -0.796595 9.827380 0.068491 -0.796582 9.827379 -0.000000 0.000001 0.000000 0.094204 -2.936347 8.060687 0.022649 -0.459241 5.646639 0.022652 -0.459245 5.646620 -0.000000 0.000002 0.000003 0.064448 -2.672772 4.802734 0.004059 -0.194651 2.390038 0.004062 -0.194625 2.390031 -0.000001 0.000000 0.000001 -41.081679 5.567287 13.620599 136.869737 5.646628 0.027778 -11.842917 0.403980 -2.351355 -55.390406 10.740410 -29.617664 -0.000004 0.000003 -0.000002 -40.290750 -5.167367 -24.553434 140.010736 -3.286371 0.933609 -7.490546 -1.683836 14.332812 -46.737219 -4.142649 13.164228 0.000000 0.000004 -0.000001 
33.081341 43.382301 -25.740841 12.796657 12.944002 1.364839 36.800291 -0.276476 -7.728950 2.749803 0.361461 0.435203 2.744319 0.415970 0.415754 0.901549 0.439683 -1.513075 -19.389930 0.203824 1.368069 0.000001 0.000001 -0.000000 2.174027 -28.127055 1.646238 -40.482634 -51.789223 -55.956461 -0.000003 -27.684498 0.000006 67.628886 -8.477945 46.782401 -2.143067 -9.345331 24.898707 5.975216 12.647529 1.348308 -7.335831 -0.421723 13.147348 0.000001 0.000004 -0.000002 0.439013 4.422136 -20.583286 0.200148 1.519771 -15.004688 0.299987 1.852362 -18.396660 -0.000001 -0.000001 0.000000 0.198512 3.608754 -12.283831 0.445962 2.243825 -22.479595 0.173557 1.416898 -13.967007 -0.000000 0.000001 0.000002 0.262779 3.873529 -14.946607 0.123351 1.197127 -11.766115 0.124997 1.204988 -11.844403 -0.000001 -0.000000 -0.000001 2.240872 16.881718 -8.158993 0.116108 1.161824 -11.414229 0.104241 1.101405 -10.813135 -0.000001 -0.000000 -0.000001 4.433394 24.866210 13.677598 -30.611743 46.823327 40.413000 0.000005 25.324359 0.000002 46.208668 -4.234363 -66.775303 1.834745 -4.754551 -20.629997 1.350993 -2.133807 0.517207 -5.504784 -5.510969 -14.718506 -0.000001 0.000002 0.000003 0.080757 -2.833353 6.784780 0.101082 -0.966066 11.946552 0.035125 -0.571507 7.033354 0.000001 -0.000002 -0.000002 0.103245 -2.997217 8.816275 0.074102 -0.828346 10.223349 0.068483 -0.796587 9.827379 0.000001 -0.000000 -0.000001 0.094205 -2.936347 8.060704 0.026249 -0.494294 6.079333 0.022651 -0.459223 5.646639 -0.000001 -0.000001 -0.000000 0.063366 -2.659694 4.641468 0.006082 -0.238115 2.924541 0.006083 -0.238275 2.926066 -0.000000 0.000001 -0.000000 -40.825564 5.588118 13.621831 136.686415 5.783177 0.023352 -11.776049 0.412988 -2.428792 -55.209075 10.726368 -29.775001 -0.000002 0.000001 0.000000 -39.998018 -5.265521 -24.576182 139.784848 -3.245793 0.929689 -7.464552 -1.675032 14.324146 -46.749892 -4.150297 13.183492 0.000005 0.000004 -0.000000 
33.118717 43.441620 -25.619026 12.717010 12.997185 1.342781 36.795397 -0.253870 -7.679725 2.758788 0.358031 0.446062 2.753312 0.413180 0.426577 0.676092 0.428685 -1.498328 -19.479870 0.132168 1.407096 0.000002 0.000001 -0.000000 1.891797 -27.967017 -0.407724 -38.833860 -53.297315 -53.714599 0.000013 -27.407263 0.000007 67.383224 -8.554121 46.888129 -2.143075 -9.345329 24.898710 5.975214 12.647523 1.348308 -7.335826 -0.421713 13.147347 0.000002 0.000000 -0.000000 0.456175 4.467169 -21.054470 0.205225 1.538560 -15.194859 0.311033 1.885266 -18.735673 0.000001 -0.000001 -0.000002 0.205229 3.639199 -12.588255 0.458333 2.273479 -22.793398 0.182047 1.450527 -14.305877 0.000000 -0.000003 -0.000002 0.270910 3.903620 -15.251153 0.126154 1.210503 -11.899609 0.132221 1.238916 -12.183205 0.000001 0.000001 -0.000003 2.319576 16.906209 -8.468442 0.117830 1.170311 -11.498791 0.110855 1.135469 -11.151939 -0.000002 0.000001 0.000004 4.325603 25.091979 13.838371 -30.519925 46.603590 40.220378 0.000010 25.028016 0.000002 46.608733 -4.048699 -66.999887 1.779111 -4.762738 -20.746860 1.351005 -2.133821 0.517211 -5.504788 -5.510968 -14.718513 0.000001 -0.000004 -0.000002 0.080760 -2.833361 6.784752 0.119694 -1.050198 13.004614 0.038842 -0.600799 7.396208 0.000000 -0.000002 0.000001 0.103239 -2.997210 8.816274 0.082379 -0.872966 10.780504 0.068488 -0.796590 9.827376 0.000001 0.000002 0.000001 0.094206 -2.936372 8.060690 0.031305 -0.539639 6.639504 0.022647 -0.459244 5.646639 -0.000001 0.000000 0.000002 0.062147 -2.644380 4.452814 0.008958 -0.288980 3.549794 0.008968 -0.289267 3.553168 -0.000000 0.000002 0.000001 -40.533170 5.559941 13.600697 136.545249 5.776948 0.018204 -11.951137 0.397251 -2.282916 -54.773770 10.604321 -29.708782 0.000000 0.000002 0.000002 -39.727174 -5.376117 -24.593633 139.568386 -3.192734 0.925584 -7.456410 -1.680589 14.331050 -46.767750 -4.161229 13.210282 -0.000001 0.000002 0.000001 
